# xmcd CD database file
#
# Track frame offsets:
#	150
#	17738
#	38075
#	58144
#	85765
#	102866
#	118367
#	132370
#	156721
#
# Disc length: 2485 seconds
#
# Revision: 0
# Processed by: cddbd v1.5.2PL0 Copyright (c) Steve Scherf et al.
# Submitted via: CDex 1.70beta2
#
DISCID=7b09b309
DTITLE=Percussion Session - TRI▲GROOVE
DYEAR=2009
DGENRE=Jazz
TTITLE0=Sweeper
TTITLE1=Buffalo
TTITLE2=Popcorn
TTITLE3=Woodpecker
TTITLE4=M.I.P
TTITLE5=Looper
TTITLE6=Count
TTITLE7=Carnival
TTITLE8=Exploration
EXTD=YEAR: 2009
EXTT0=
EXTT1=
EXTT2=
EXTT3=
EXTT4=
EXTT5=
EXTT6=
EXTT7=
EXTT8=
PLAYORDER=
